<?xml version="1.0" encoding="UTF-8" standalone="no"?>
<svg xmlns:svg="http://www.w3.org/2000/svg" xmlns="http://www.w3.org/2000/svg" version="1.1"
     viewBox="0 0 100 100" height="100mm" width="100mm">
  <g fill="white">
    <circle r="0.04" cx="50" cy="50"/>
    <circle cy="50.41761" cx="55.512436" r="0.04"/>
    <circle r="0.04" cx="64.146828" cy="48.291492"/>
    <circle cy="50.051445" cx="70.182632" r="0.04"/>
    <circle r="0.04" cx="65.65873" cy="56.902264"/>
    <circle cy="57.292053" cx="59.209511" r="0.04"/>
    <circle r="0.04" cx="61.926216" cy="59.111065"/>
    <circle cy="63.04438" cx="54.780106" r="0.04"/>
    <circle r="0.04" cx="73.064705" cy="66.895012"/>
    <circle cy="63.823956" cx="82.703094" r="0.04"/>
    <circle r="0.04" cx="88.018387" cy="64.249176"/>
    <circle cy="68.312424" cx="88.183754" r="0.04"/>
    <circle r="0.04" cx="83.907898" cy="75.895569"/>
    <circle r="0.04" cy="80.147804" cx="90.144508"/>
    <circle cx="92.530479" cy="77.100372" r="0.04"/>
    <circle r="0.04" cy="61.485229" cx="94.916451"/>
    <circle cx="95.625153" cy="61.201748" r="0.04"/>
    <circle r="0.04" cy="59.713467" cx="94.113251"/>
    <circle cx="100.44435" cy="54.610786" r="0.04"/>
    <circle r="0.04" cy="59.737087" cx="101.15305"/>
    <circle cx="92.979317" cy="50.122318" r="0.04"/>
    <circle r="0.04" cy="48.681286" cx="81.309303"/>
    <circle cx="77.742149" cy="51.397991" r="0.04"/>
    <circle r="0.04" cy="42.751785" cx="73.655281"/>
    <circle cx="89.152306" cy="35.924591" r="0.04"/>
    <circle r="0.04" cy="38.641296" cx="85.70327"/>
    <circle cx="98.50721" cy="42.066704" r="0.04"/>
    <circle r="0.04" cy="42.232067" cx="91.939873"/>
    <circle r="0.04" cx="91.609146" cy="34.389061"/>
    <circle cy="30.727417" cx="85.514282" r="0.04"/>
    <circle r="0.04" cx="91.727264" cy="25.50662"/>
    <circle cy="20.167707" cx="87.923882" r="0.04"/>
    <circle r="0.04" cx="100.89319" cy="21.372507"/>
    <circle cy="14.167336" cx="100.79869" r="0.04"/>
    <circle r="0.04" cx="90.735077" cy="14.12009"/>
    <circle cy="11.686868" cx="89.837387" r="0.04"/>
    <circle r="0.04" cx="90.30986" cy="4.7651787"/>
    <circle cy="2.4973216" cx="93.333672" r="0.04"/>
    <circle r="0.04" cx="99.570282" cy="3.3241446"/>
    <circle cy="8.6866817" cx="83.411797" r="0.04"/>
    <circle r="0.04" cx="79.702904" cy="14.096466"/>
    <circle cy="7.9071059" cx="75.214439" r="0.04"/>
    <circle r="0.04" cx="72.71035" cy="1.1035345"/>
    <circle cy="0.65468776" cx="69.993645" r="0.04"/>
    <circle r="0.04" cx="69.190445" cy="-0.030394085"/>
    <circle cy="1.7886163" cx="64.418495" r="0.04"/>
    <circle r="0.04" cx="62.646732" cy="3.8674853"/>
    <circle cy="5.6628723" cx="68.812469" r="0.04"/>
    <circle r="0.04" cx="66.072144" cy="10.718304"/>
    <circle cy="17.427382" cx="64.087769" r="0.04"/>
    <circle r="0.04" cx="64.276756" cy="16.435194"/>
    <circle cy="6.1572871" cx="51.778488" r="0.04"/>
    <circle r="0.04" cx="45.556118" cy="9.1557169"/>
    <circle cy="13.824581" cx="47.01775" r="0.04"/>
    <circle r="0.04" cx="43.818867" cy="13.632482"/>
    <circle cy="8.1116953" cx="42.850014" r="0.04"/>
    <circle r="0.04" cx="39.768063" cy="8.9469128"/>
    <circle cy="11.068365" cx="37.387691" r="0.04"/>
    <circle cy="2.9667571" cx="35.107552" r="0.04"/>
    <circle r="0.04" cx="34.48114" cy="1.1543356"/>
    <circle cy="2.8498266" cx="30.096249" r="0.04"/>
    <circle r="0.04" cx="24.993071" cy="1.7473397"/>
    <circle cy="0.36087903" cx="21.936176" r="0.04"/>
    <circle r="0.04" cx="16.089655" cy="2.2234135"/>
    <circle cy="6.0821171" cx="14.870237" r="0.04"/>
    <circle r="0.04" cx="21.050846" cy="7.443521"/>
    <circle cy="10.099512" cx="10.410178" r="0.04"/>
    <circle r="0.04" cx="6.300909" cy="6.6918254"/>
    <circle cy="8.6128254" cx="1.9243705" r="0.04"/>
    <circle cy="2.3152869" cx="5.0814919" r="0.04"/>
    <circle r="0.04" cx="-1.0490029" cy="3.1839128"/>
    <circle r="0.04" cx="2.3920922" cy="7.811017"/>
    <circle cy="15.361382" cx="3.6950312" r="0.04"/>
    <circle r="0.04" cx="5.4489875" cy="20.573137"/>
    <circle cy="22.143345" cx="11.796638" r="0.04"/>
    <circle r="0.04" cx="7.0191946" cy="24.715815"/>
    <circle cy="27.104536" cx="0.270639" r="0.04"/>
    <circle r="0.04" cx="-0.3390696" cy="26.536589"/>
    <circle cy="25.968641" cx="-1.4164999" r="0.04"/>
    <circle r="0.04" cx="0.6297825" cy="29.192579"/>
    <circle cy="28.716505" cx="3.452817" r="0.04"/>
    <circle r="0.04" cx="5.1891451" cy="37.717064"/>
    <circle cy="38.165909" cx="0.45263094" r="0.04"/>
    <circle r="0.04" cx="13.103022" cy="39.961296"/>
    <circle cy="38.402145" cx="15.323631" r="0.04"/>
    <circle r="0.04" cx="15.040149" cy="33.063232"/>
    <circle cy="31.43321" cx="17.496994" r="0.04"/>
    <circle r="0.04" cx="23.379248" cy="33.476643"/>
    <circle cy="35.319275" cx="19.091579" r="0.04"/>
    <circle r="0.04" cx="19.977461" cy="37.539886"/>
    <circle cy="39.016357" cx="17.402498" r="0.04"/>
    <circle r="0.04" cx="3.0630291" cy="46.623127"/>
    <circle cy="51.312393" cx="7.7168608" r="0.04"/>
    <circle r="0.04" cx="5.5789328" cy="54.631496"/>
    <circle r="0.04" cy="55.481941" cx="-1.3309445"/>
    <circle cy="56.769424" cx="11.0714" r="0.04"/>
    <circle r="0.04" cx="10.220953" cy="59.734177"/>
    <circle cy="63.974598" cx="2.1653354" r="0.04"/>
    <circle r="0.04" cx="6.8427906" cy="64.364388"/>
    <circle cy="69.325325" cx="2.7322996" r="0.04"/>
    <circle r="0.04" cx="6.1104617" cy="75.077652"/>
    <circle cy="78.821976" cx="5.082839" r="0.04"/>
    <circle r="0.04" cx="5.767921" cy="90.031334"/>
    <circle cy="94.933212" cx="3.9961576" r="0.04"/>
    <circle r="0.04" cx="11.378505" cy="92.393684"/>
    <circle cy="88.046959" cx="16.611113" r="0.04"/>
    <circle r="0.04" cx="17.839535" cy="90.905403"/>
    <circle cy="93.976463" cx="19.741228" r="0.04"/>
    <circle r="0.04" cx="27.265316" cy="87.515434"/>
    <circle cy="87.468185" cx="28.635479" r="0.04"/>
    <circle r="0.04" cx="29.828466" cy="91.436935"/>
    <circle r="0.04" cx="17.166265" cy="80.818161"/>
    <circle cy="79.176331" cx="17.567865" r="0.04"/>
    <circle r="0.04" cx="22.646921" cy="73.813797"/>
    <circle cy="72.372765" cx="21.15864" r="0.04"/>
    <circle r="0.04" cx="17.804102" cy="69.738747"/>
    <circle cy="64.860489" cx="15.418127" r="0.04"/>
    <circle r="0.04" cx="20.320005" cy="68.250465"/>
    <circle cy="63.83287" cx="21.264946" r="0.04"/>
    <circle r="0.04" cx="23.804474" cy="62.628071"/>
    <circle cy="59.297157" cx="24.985649" r="0.04"/>
    <circle r="0.04" cx="18.465559" cy="60.383839"/>
    <circle cy="62.545391" cx="28.470116" r="0.04"/>
    <circle r="0.04" cx="29.816656" cy="66.856682"/>
    <circle cy="69.597008" cx="38.805401" r="0.04"/>
    <circle r="0.04" cx="40.801586" cy="63.655693"/>
    <circle r="0.04" cx="36.230438" cy="75.632812"/>
    <circle cy="75.80999" cx="37.045448" r="0.04"/>
    <circle r="0.04" cx="41.380363" cy="73.494888"/>
    <circle cy="74.817802" cx="42.372551" r="0.04"/>
    <circle r="0.04" cx="45.738903" cy="82.21196"/>
    <circle cy="86.145271" cx="40.435425" r="0.04"/>
    <circle r="0.04" cx="40.955143" cy="86.310638"/>
    <circle cy="95.960846" cx="39.041637" r="0.04"/>
    <circle r="0.04" cx="36.041451" cy="90.598312"/>
    <circle cy="92.606308" cx="51.278614" r="0.04"/>
    <circle r="0.04" cx="56.794704" cy="88.035156"/>
    <circle cy="87.172897" cx="67.555214" r="0.04"/>
    <circle r="0.04" cx="67.980438" cy="87.539062"/>
    <circle cy="88.413132" cx="69.090744" r="0.04"/>
    <circle r="0.04" cx="68.358414" cy="94.720612"/>
    <circle cy="96.102585" cx="66.137802" r="0.04"/>
    <circle r="0.04" cx="67.95681" cy="98.252327"/>
    <circle r="0.04" cx="79.792198" cy="87.893417"/>
    <circle cy="90.07859" cx="94.426964" r="0.04"/>
    <circle r="0.04" cx="101.27778" cy="91.448753"/>
    <circle cy="82.684433" cx="77.028244" r="0.04"/>
    <circle r="0.04" cx="77.618835" cy="82.070221"/>
    <circle cy="76.518692" cx="64.543221" r="0.04"/>
    <circle r="0.04" cx="62.59428" cy="71.817612"/>
    <circle r="0.04" cx="51.07782" cy="75.561943"/>
    <circle cy="79.318085" cx="48.951702" r="0.04"/>
    <circle r="0.04" cx="45.035408" cy="55.709278"/>
    <circle cy="47.866272" cx="43.369949" r="0.04"/>
    <circle r="0.04" cx="46.429195" cy="47.64185"/>
    <circle cy="44.582603" cx="47.693054" r="0.04"/>
    <circle r="0.04" cx="41.468258" cy="44.629852"/>
    <circle cy="43.507736" cx="39.448448" r="0.04"/>
    <circle r="0.04" cx="45.555126" cy="40.153198"/>
    <circle cy="42.161198" cx="52.949284" r="0.04"/>
    <circle r="0.04" cx="56.221142" cy="41.381622"/>
    <circle cy="40.637482" cx="56.74086" r="0.04"/>
    <circle r="0.04" cx="58.193707" cy="35.558426"/>
    <circle cy="36.432495" cx="59.233143" r="0.04"/>
    <circle r="0.04" cx="60.827728" cy="38.452305"/>
    <circle cy="36.88134" cx="64.784668" r="0.04"/>
    <circle r="0.04" cx="68.363632" cy="43.413242"/>
    <circle cy="31.4125" cx="54.012344" r="0.04"/>
    <circle r="0.04" cx="56.091213" cy="28.51862"/>
    <circle cy="26.829538" cx="48.354511" r="0.04"/>
    <circle r="0.04" cx="48.260017" cy="24.502623"/>
    <circle r="0.04" cy="32.369251" cx="44.137714"/>
    <circle cx="34.511135" cy="33.089767" r="0.04"/>
    <circle r="0.04" cy="32.357437" cx="28.794245"/>
    <circle cx="38.409016" cy="24.219137" r="0.04"/>
    <circle r="0.04" cy="24.502619" cx="38.290897"/>
    <circle r="0.04" cy="18.726671" cx="43.984165"/>
    <circle cx="47.480446" cy="16.978531" r="0.04"/>
    <circle r="0.04" cy="17.828978" cx="52.630371"/>
    <circle cx="56.799919" cy="21.726856" r="0.04"/>
    <circle r="0.04" cy="28.488346" cx="71.392624"/>
    <circle r="0.04" cx="15.3756" cy="21.36377"/>
    <circle cy="20.56057" cx="18.824633" r="0.04"/>
    <circle r="0.04" cx="23.336723" cy="22.993792"/>
    <circle cy="25.202589" cx="22.757948" r="0.04"/>
    <circle r="0.04" cx="22.549702" cy="16.367779"/>
    <circle cy="13.277474" cx="24.470701" r="0.04"/>
    <circle r="0.04" cy="39.810658" cx="31.72356"/>
    <circle cx="27.542198" cy="36.79866" r="0.04"/>
    <animateTransform attributeName="transform" type="rotate" repeatCount="indefinite"
                      from="0 50 50" to="360 50 50" dur="240s"/>
  </g>
</svg>
